<?xml version="1.0" encoding="UTF-8"?><svg id="a" xmlns="http://www.w3.org/2000/svg" viewBox="0 0 2231.73 302.45"><defs><style>.b{fill:#a80ce6;}.c{fill:#070707;}</style></defs><g><path class="c" d="M375.31,302.45l-27.32-27.32v-29.75h30.83v17.04l9.74,9.74h29.21l9.74-9.74V113.12h30.83v162.01l-27.32,27.32h-55.72Z"/><path class="c" d="M515.4,302.45l-27.32-27.32v-80.6l27.32-27.32h82.76l27.32,27.32v54.36h-106.56v13.52l9.74,9.74h88.71v30.29h-101.96Zm79.25-95.2l-10.28-10.28h-55.17l-10.28,10.28v12.44h75.73v-12.44Z"/><path class="c" d="M663.35,302.45v-79.52h-27.05v-30.29h27.05v-52.2l27.32-27.32h68.97v30.29h-55.72l-9.74,9.74v39.49h51.39v30.29h-51.39v79.52h-30.83Z"/><path class="c" d="M788.03,302.45v-79.52h-27.05v-30.29h27.05v-52.2l27.32-27.32h68.97v30.29h-55.72l-9.74,9.74v39.49h51.39v30.29h-51.39v79.52h-30.83Z"/><path class="c" d="M983.02,302.45V113.12h110.08l27.32,27.32v53.55l-13.79,13.79,13.79,13.79v53.55l-27.32,27.32h-110.08Zm106.56-149.3l-9.74-9.74h-65.99v49.22h65.99l9.74-9.74v-29.75Zm0,79.52l-9.74-9.74h-65.99v49.22h65.99l9.74-9.74v-29.75Z"/><path class="c" d="M1142.05,302.45v-30.29h27.05v-74.65h-27.05v-30.29h105.48l27.32,27.32v28.4h-30.83v-15.69l-9.74-9.74h-34.35v74.65h35.16v30.29h-93.04Z"/><path class="c" d="M1319.74,302.45l-27.32-27.32v-107.91h30.83v95.2l9.74,9.74h65.99v-104.94h30.83v135.23h-110.08Z"/><path class="c" d="M1485.53,302.45l-27.32-27.32v-80.6l27.32-27.32h96.55v30.29h-83.3l-9.74,9.74v55.17l9.74,9.74h83.3v30.29h-96.55Z"/><path class="c" d="M1712.99,302.45v-95.2l-9.74-9.74h-65.99v104.94h-30.83V113.12h30.83v54.09h79.25l27.32,27.32v107.91h-30.83Z"/><path class="c" d="M1792.77,302.45l-27.32-27.32v-28.94l27.32-27.32h79.25v-11.63l-9.74-9.74h-88.71v-30.29h101.96l27.32,27.32v107.91h-110.08Zm79.25-53.82h-65.99l-9.74,9.74v4.6l9.74,9.74h65.99v-24.07Z"/><path class="c" d="M1955.86,302.45l-27.32-27.32v-80.6l27.32-27.32h79.25v-54.09h30.83v189.32h-110.08Zm79.25-104.94h-65.99l-9.74,9.74v55.17l9.74,9.74h65.99v-74.65Z"/><path class="c" d="M2121.65,302.45l-27.32-27.32v-80.6l27.32-27.32h82.76l27.32,27.32v80.6l-27.32,27.32h-82.76Zm79.25-95.2l-9.74-9.74h-56.26l-9.74,9.74v55.17l9.74,9.74h56.26l9.74-9.74v-55.17Z"/></g><g><path class="b" d="M272.84,68.97h0v-20.76L224.63,0H42.31L0,41.97l19.79,19.95L53.88,28.1h76.71v246.22H53.88l-34.09-33.82L0,260.46l42.31,41.97h224.22l46.12-46.12v-65.23l-18.49-18.49h0l-27.63-27.63h-25.42l31.73-31.73v-44.25m-28.1,0v32.61l-71.48,71.48h81.63l19.4,19.4,10.26,10.26v41.95l-29.66,29.66h-96.2V28.1h54.3l31.75,31.75v9.11"/><path class="b" d="M279.39,119.1c-3.39,.36-6.64,2.11-9.43,5.06l-5.43,5.43,6.1,6.1,6.1-6.1-3.77-3.77c1.59-1.52,3.91-3.13,6.78-3.44,.33-.04,.68-.05,1.02-.05v-3.3c-.46,0-.93,.02-1.38,.07Z"/></g></svg>