<?xml version="1.0" encoding="UTF-8" standalone="no"?>
<svg
   xmlns:dc="http://purl.org/dc/elements/1.1/"
   xmlns:cc="http://creativecommons.org/ns#"
   xmlns:rdf="http://www.w3.org/1999/02/22-rdf-syntax-ns#"
   xmlns:svg="http://www.w3.org/2000/svg"
   xmlns="http://www.w3.org/2000/svg"
   xmlns:sodipodi="http://sodipodi.sourceforge.net/DTD/sodipodi-0.dtd"
   xmlns:inkscape="http://www.inkscape.org/namespaces/inkscape"
   version="1.1"
   id="svg2"
   xml:space="preserve"
   width="4000"
   height="4000"
   viewBox="0 0 4000 4000"
   sodipodi:docname="Símbolo.ai"><metadata
     id="metadata8"><rdf:RDF><cc:Work
         rdf:about=""><dc:format>image/svg+xml</dc:format><dc:type
           rdf:resource="http://purl.org/dc/dcmitype/StillImage" /></cc:Work></rdf:RDF></metadata><defs
     id="defs6"><clipPath
       clipPathUnits="userSpaceOnUse"
       id="clipPath22"><path
         d="M 0,3000 H 3000 V 0 H 0 Z"
         id="path20" /></clipPath></defs><sodipodi:namedview
     pagecolor="#ffffff"
     bordercolor="#666666"
     borderopacity="1"
     objecttolerance="10"
     gridtolerance="10"
     guidetolerance="10"
     inkscape:pageopacity="0"
     inkscape:pageshadow="2"
     inkscape:window-width="640"
     inkscape:window-height="480"
     id="namedview4" /><g
     id="g10"
     inkscape:groupmode="layer"
     inkscape:label="Símbolo"
     transform="matrix(1.3333333,0,0,-1.3333333,0,4000)"><g
       id="g12"
       transform="translate(2238.2683,2187.6553)"><path
         d="m 0,0 -0.033,-272.488 -597.206,-597.209 h 283.445 241.731 156.851 l 162.097,-162.097 85.73,-85.734 v -350.487 L 84.788,-1715.842 h -426.233 -377.543 v 877.109 85.543 1094.669 h 377.543 76.151 L 0.01,76.178 0,0.048 m 234.813,-0.062 v 0.03 l 0.025,173.411 -402.869,402.865 h -48.631 -124.783 -436.795 -10.707 -332.336 -64.337 -6.068 -99.193 -400.536 l -353.499,-350.657 165.368,-166.706 284.839,282.55 h 303.828 99.193 6.068 231.819 v -1094.669 -85.543 -877.109 h -237.887 -99.193 -303.828 l -284.839,282.548 -165.368,-166.705 353.499,-350.656 h 400.536 99.193 70.399 283.757 48.578 447.509 523.496 l 385.377,385.377 v 545.013 L 412.927,-865.76 v 0.004 L 182.051,-634.884 H -30.35 l 265.124,265.124 v 48.628 l 0.039,321.104"
         style="fill:#a80ce6;fill-opacity:1;fill-rule:nonzero;stroke:#a80ce6;stroke-width:1;stroke-linecap:butt;stroke-linejoin:miter;stroke-miterlimit:10;stroke-dasharray:none;stroke-opacity:1"
         id="path14" /></g><g
       id="g16"><g
         id="g18"
         clip-path="url(#clipPath22)"><g
           id="g24"
           transform="translate(2527.8311,1768.843)"><path
             d="m 0,0 c -28.283,-3.041 -55.511,-17.665 -78.803,-42.277 l -45.329,-45.33 50.946,-50.95 50.95,50.95 -31.482,31.48 c 13.294,12.694 32.646,26.131 56.673,28.715 2.793,0.3 5.668,0.455 8.542,0.455 V 0.613 C 7.636,0.613 3.766,0.407 0,0"
             style="fill:#a80ce6;fill-opacity:1;fill-rule:nonzero;stroke:none"
             id="path26" /></g><g
           id="g28"
           transform="translate(2527.8311,1768.843)"><path
             d="m 0,0 c -28.283,-3.041 -55.511,-17.665 -78.803,-42.277 l -45.329,-45.33 50.946,-50.95 50.95,50.95 -31.482,31.48 c 13.294,12.694 32.646,26.131 56.673,28.715 2.793,0.3 5.668,0.455 8.542,0.455 V 0.613 C 7.636,0.613 3.766,0.407 0,0 Z"
             style="fill:none;stroke:#a80ce6;stroke-width:1;stroke-linecap:butt;stroke-linejoin:miter;stroke-miterlimit:10;stroke-dasharray:none;stroke-opacity:1"
             id="path30" /></g></g></g></g></svg>
